<svg width="71" height="70" viewBox="0 0 71 70" fill="none" xmlns="http://www.w3.org/2000/svg">
<g id="icon">
<rect id="Rectangle 9" x="0.3125" width="70" height="70" rx="15" fill="#F25822" fill-opacity="0.25"/>
<path id="Vector" d="M24.0903 25.7778V45.2222H46.3125V25.7778H24.0903ZM22.7014 23H47.7014C48.0697 23 48.423 23.1463 48.6835 23.4068C48.9439 23.6673 49.0903 24.0205 49.0903 24.3889V46.6111C49.0903 46.9795 48.9439 47.3327 48.6835 47.5932C48.423 47.8537 48.0697 48 47.7014 48H22.7014C22.333 48 21.9798 47.8537 21.7193 47.5932C21.4588 47.3327 21.3125 46.9795 21.3125 46.6111V24.3889C21.3125 24.0205 21.4588 23.6673 21.7193 23.4068C21.9798 23.1463 22.333 23 22.7014 23ZM39.0806 32.4347L36.5903 29.9444H43.5347V36.8889L41.0444 34.3986L35.6778 39.7653L32.7319 36.8194L28.8028 40.7472L26.8389 38.7833L32.7319 32.8903L35.6778 35.8375L39.0806 32.4347Z" fill="#F25822"/>
</g>
</svg>
