<svg width="71" height="70" viewBox="0 0 71 70" fill="none" xmlns="http://www.w3.org/2000/svg">
<g id="icon">
<rect id="Rectangle 9" x="0.3125" width="70" height="70" rx="15" fill="#149211" fill-opacity="0.28"/>
<g id="flash">
<path id="Vector" d="M34.8854 46.9583C34.7646 46.9582 34.6447 46.937 34.5312 46.8958C34.3122 46.8156 34.1264 46.6643 34.0037 46.466C33.8809 46.2676 33.8282 46.0339 33.8541 45.8021L34.6562 38.4167H28.5208C28.3315 38.417 28.1458 38.3657 27.9835 38.2684C27.8212 38.171 27.6885 38.0313 27.5996 37.8643C27.5107 37.6972 27.469 37.5091 27.479 37.3201C27.489 37.1311 27.5502 36.9484 27.6562 36.7917L35.8749 24.5C36.0049 24.3076 36.1954 24.1642 36.4163 24.0925C36.6371 24.0208 36.8755 24.0249 37.0937 24.1042C37.3035 24.182 37.4826 24.3254 37.6045 24.513C37.7265 24.7006 37.7848 24.9225 37.7708 25.1458L36.9687 32.5833H43.1041C43.2933 32.583 43.4791 32.6343 43.6414 32.7316C43.8037 32.829 43.9364 32.9687 44.0253 33.1357C44.1142 33.3028 44.1559 33.4909 44.1459 33.6799C44.1359 33.8689 44.0747 34.0515 43.9687 34.2083L35.7499 46.5C35.6544 46.6414 35.5256 46.7571 35.3748 46.837C35.2241 46.9169 35.056 46.9586 34.8854 46.9583ZM30.4687 36.3333H35.8124C35.9578 36.3337 36.1015 36.3644 36.2342 36.4236C36.367 36.4828 36.4859 36.5692 36.5833 36.6771C36.6816 36.7865 36.7556 36.9154 36.8005 37.0554C36.8454 37.1955 36.8601 37.3434 36.8437 37.4896L36.3749 41.8125L41.1562 34.6667H35.8124C35.6655 34.6676 35.5199 34.6373 35.3855 34.578C35.251 34.5186 35.1306 34.4315 35.0322 34.3222C34.9338 34.213 34.8597 34.0842 34.8146 33.9443C34.7695 33.8044 34.7546 33.6565 34.7708 33.5104L35.2395 29.1875L30.4687 36.3333Z" fill="#149211"/>
</g>
</g>
</svg>
