<svg width="71" height="70" viewBox="0 0 71 70" fill="none" xmlns="http://www.w3.org/2000/svg">
<g id="icon">
<rect id="Rectangle 9" x="0.3125" width="70" height="70" rx="15" fill="#FFCD1D" fill-opacity="0.24"/>
<g id="icon_2">
<g id="pricetags">
<path id="Vector" d="M36.7188 45.9167C36.2158 45.9161 35.7332 45.7178 35.3751 45.3646L28.698 38.6771C28.5266 38.5067 28.4199 38.2821 28.3959 38.0417L27.4792 28.3021C27.4652 28.1495 27.485 27.9957 27.5372 27.8517C27.5894 27.7076 27.6728 27.5769 27.7813 27.4688C27.8895 27.3602 28.0202 27.2769 28.1642 27.2247C28.3083 27.1724 28.4621 27.1526 28.6146 27.1667L38.3542 28.0833C38.5947 28.1073 38.8193 28.2141 38.9896 28.3854L45.6772 35.0625C46.0315 35.4179 46.2304 35.8992 46.2304 36.401C46.2304 36.9029 46.0315 37.3842 45.6772 37.7396L38.0521 45.3646C37.6979 45.7172 37.2187 45.9156 36.7188 45.9167ZM30.4688 37.4688L36.7188 43.7188L44.0626 36.375L37.8126 30.125L29.6771 29.3646L30.4688 37.4688Z" fill="#FFC700"/>
<path id="Vector_2" d="M34.25 35.5C35.1129 35.5 35.8125 34.8004 35.8125 33.9375C35.8125 33.0746 35.1129 32.375 34.25 32.375C33.3871 32.375 32.6875 33.0746 32.6875 33.9375C32.6875 34.8004 33.3871 35.5 34.25 35.5Z" fill="#FFC700"/>
</g>
</g>
</g>
</svg>
